<svg xmlns="http://www.w3.org/2000/svg" viewBox="0 0 120 120"><path d="M92 60C92 91.82 91.82 92 60 92C28.18 92 28 91.82 28 60C28 28.18 28.18 28 60 28C91.82 28 92 28.18 92 60Z" fill="#f85a3c"/><path d="M75.5 11.5C75.5 21.05 74.09 22 60 22C45.91 22 44.5 21.05 44.5 11.5C44.5 1.95 45.91 1 60 1C74.09 1 75.5 1.95 75.5 11.5Z" fill="#e5e5e5"/><path d="M119 60C119 74.09 118.05 75.5 108.5 75.5C98.95 75.5 98 74.09 98 60C98 45.91 98.95 44.5 108.5 44.5C118.05 44.5 119 45.91 119 60Z" fill="#e5e5e5"/><path d="M75.5 108.5C75.5 118.05 74.09 119 60 119C45.91 119 44.5 118.05 44.5 108.5C44.5 98.95 45.91 98 60 98C74.09 98 75.5 98.95 75.5 108.5Z" fill="#e5e5e5"/><path d="M22 60C22 74.09 21.05 75.5 11.5 75.5C1.95 75.5 1 74.09 1 60C1 45.91 1.95 44.5 11.5 44.5C21.05 44.5 22 45.91 22 60Z" fill="#e5e5e5"/></svg>
