<svg xmlns="http://www.w3.org/2000/svg" viewBox="0 0 120 120"><mask id="channels"><rect width="120" height="120" fill="#fff"/><path d="M76.50 26.50L76.48 28.39L76.42 29.31L76.32 30.04L76.18 30.66L75.99 31.21L75.77 31.70L75.51 32.15L75.20 32.56L74.85 32.93L74.46 33.28L74.02 33.59L73.54 33.88L73.01 34.15L72.43 34.38L71.79 34.60L71.10 34.79L70.35 34.96L69.53 35.10L68.63 35.22L67.62 35.32L66.48 35.40L65.15 35.46L63.47 35.49L60.00 35.50L56.53 35.49L54.85 35.46L53.52 35.40L52.38 35.32L51.37 35.22L50.47 35.10L49.65 34.96L48.90 34.79L48.21 34.60L47.57 34.38L46.99 34.15L46.46 33.88L45.98 33.59L45.54 33.28L45.15 32.93L44.80 32.56L44.49 32.15L44.23 31.70L44.01 31.21L43.82 30.66L43.68 30.04L43.58 29.31L43.52 28.39L43.50 26.50L43.52 24.61L43.58 23.69L43.68 22.96L43.82 22.34L44.01 21.79L44.23 21.30L44.49 20.85L44.80 20.44L45.15 20.07L45.54 19.72L45.98 19.41L46.46 19.12L46.99 18.85L47.57 18.62L48.21 18.40L48.90 18.21L49.65 18.04L50.47 17.90L51.37 17.78L52.38 17.68L53.52 17.60L54.85 17.54L56.53 17.51L60.00 17.50L63.47 17.51L65.15 17.54L66.48 17.60L67.62 17.68L68.63 17.78L69.53 17.90L70.35 18.04L71.10 18.21L71.79 18.40L72.43 18.62L73.01 18.85L73.54 19.12L74.02 19.41L74.46 19.72L74.85 20.07L75.20 20.44L75.51 20.85L75.77 21.30L75.99 21.79L76.18 22.34L76.32 22.96L76.42 23.69L76.48 24.61L76.50 26.50Z" fill="#000"/><path d="M102.50 60.00L102.49 63.47L102.46 65.15L102.40 66.48L102.32 67.62L102.22 68.63L102.10 69.53L101.96 70.35L101.79 71.10L101.60 71.79L101.38 72.43L101.15 73.01L100.88 73.54L100.59 74.02L100.28 74.46L99.93 74.85L99.56 75.20L99.15 75.51L98.70 75.77L98.21 75.99L97.66 76.18L97.04 76.32L96.31 76.42L95.39 76.48L93.50 76.50L91.61 76.48L90.69 76.42L89.96 76.32L89.34 76.18L88.79 75.99L88.30 75.77L87.85 75.51L87.44 75.20L87.07 74.85L86.72 74.46L86.41 74.02L86.12 73.54L85.85 73.01L85.62 72.43L85.40 71.79L85.21 71.10L85.04 70.35L84.90 69.53L84.78 68.63L84.68 67.62L84.60 66.48L84.54 65.15L84.51 63.47L84.50 60.00L84.51 56.53L84.54 54.85L84.60 53.52L84.68 52.38L84.78 51.37L84.90 50.47L85.04 49.65L85.21 48.90L85.40 48.21L85.62 47.57L85.85 46.99L86.12 46.46L86.41 45.98L86.72 45.54L87.07 45.15L87.44 44.80L87.85 44.49L88.30 44.23L88.79 44.01L89.34 43.82L89.96 43.68L90.69 43.58L91.61 43.52L93.50 43.50L95.39 43.52L96.31 43.58L97.04 43.68L97.66 43.82L98.21 44.01L98.70 44.23L99.15 44.49L99.56 44.80L99.93 45.15L100.28 45.54L100.59 45.98L100.88 46.46L101.15 46.99L101.38 47.57L101.60 48.21L101.79 48.90L101.96 49.65L102.10 50.47L102.22 51.37L102.32 52.38L102.40 53.52L102.46 54.85L102.49 56.53L102.50 60.00Z" fill="#000"/><path d="M76.50 93.50L76.48 95.39L76.42 96.31L76.32 97.04L76.18 97.66L75.99 98.21L75.77 98.70L75.51 99.15L75.20 99.56L74.85 99.93L74.46 100.28L74.02 100.59L73.54 100.88L73.01 101.15L72.43 101.38L71.79 101.60L71.10 101.79L70.35 101.96L69.53 102.10L68.63 102.22L67.62 102.32L66.48 102.40L65.15 102.46L63.47 102.49L60.00 102.50L56.53 102.49L54.85 102.46L53.52 102.40L52.38 102.32L51.37 102.22L50.47 102.10L49.65 101.96L48.90 101.79L48.21 101.60L47.57 101.38L46.99 101.15L46.46 100.88L45.98 100.59L45.54 100.28L45.15 99.93L44.80 99.56L44.49 99.15L44.23 98.70L44.01 98.21L43.82 97.66L43.68 97.04L43.58 96.31L43.52 95.39L43.50 93.50L43.52 91.61L43.58 90.69L43.68 89.96L43.82 89.34L44.01 88.79L44.23 88.30L44.49 87.85L44.80 87.44L45.15 87.07L45.54 86.72L45.98 86.41L46.46 86.12L46.99 85.85L47.57 85.62L48.21 85.40L48.90 85.21L49.65 85.04L50.47 84.90L51.37 84.78L52.38 84.68L53.52 84.60L54.85 84.54L56.53 84.51L60.00 84.50L63.47 84.51L65.15 84.54L66.48 84.60L67.62 84.68L68.63 84.78L69.53 84.90L70.35 85.04L71.10 85.21L71.79 85.40L72.43 85.62L73.01 85.85L73.54 86.12L74.02 86.41L74.46 86.72L74.85 87.07L75.20 87.44L75.51 87.85L75.77 88.30L75.99 88.79L76.18 89.34L76.32 89.96L76.42 90.69L76.48 91.61L76.50 93.50Z" fill="#000"/><path d="M35.50 60.00L35.49 63.47L35.46 65.15L35.40 66.48L35.32 67.62L35.22 68.63L35.10 69.53L34.96 70.35L34.79 71.10L34.60 71.79L34.38 72.43L34.15 73.01L33.88 73.54L33.59 74.02L33.28 74.46L32.93 74.85L32.56 75.20L32.15 75.51L31.70 75.77L31.21 75.99L30.66 76.18L30.04 76.32L29.31 76.42L28.39 76.48L26.50 76.50L24.61 76.48L23.69 76.42L22.96 76.32L22.34 76.18L21.79 75.99L21.30 75.77L20.85 75.51L20.44 75.20L20.07 74.85L19.72 74.46L19.41 74.02L19.12 73.54L18.85 73.01L18.62 72.43L18.40 71.79L18.21 71.10L18.04 70.35L17.90 69.53L17.78 68.63L17.68 67.62L17.60 66.48L17.54 65.15L17.51 63.47L17.50 60.00L17.51 56.53L17.54 54.85L17.60 53.52L17.68 52.38L17.78 51.37L17.90 50.47L18.04 49.65L18.21 48.90L18.40 48.21L18.62 47.57L18.85 46.99L19.12 46.46L19.41 45.98L19.72 45.54L20.07 45.15L20.44 44.80L20.85 44.49L21.30 44.23L21.79 44.01L22.34 43.82L22.96 43.68L23.69 43.58L24.61 43.52L26.50 43.50L28.39 43.52L29.31 43.58L30.04 43.68L30.66 43.82L31.21 44.01L31.70 44.23L32.15 44.49L32.56 44.80L32.93 45.15L33.28 45.54L33.59 45.98L33.88 46.46L34.15 46.99L34.38 47.57L34.60 48.21L34.79 48.90L34.96 49.65L35.10 50.47L35.22 51.37L35.32 52.38L35.40 53.52L35.46 54.85L35.49 56.53L35.50 60.00Z" fill="#000"/></mask><path d="M99.00 60.00L98.97 73.94L98.87 78.09L98.72 81.05L98.49 83.42L98.21 85.41L97.85 87.14L97.43 88.67L96.94 90.02L96.38 91.24L95.74 92.34L95.02 93.33L94.22 94.22L93.33 95.02L92.34 95.74L91.24 96.38L90.02 96.94L88.67 97.43L87.14 97.85L85.41 98.21L83.42 98.49L81.05 98.72L78.09 98.87L73.94 98.97L60.00 99.00L46.06 98.97L41.91 98.87L38.95 98.72L36.58 98.49L34.59 98.21L32.86 97.85L31.33 97.43L29.98 96.94L28.76 96.38L27.66 95.74L26.67 95.02L25.78 94.22L24.98 93.33L24.26 92.34L23.62 91.24L23.06 90.02L22.57 88.67L22.15 87.14L21.79 85.41L21.51 83.42L21.28 81.05L21.13 78.09L21.03 73.94L21.00 60.00L21.03 46.06L21.13 41.91L21.28 38.95L21.51 36.58L21.79 34.59L22.15 32.86L22.57 31.33L23.06 29.98L23.62 28.76L24.26 27.66L24.98 26.67L25.78 25.78L26.67 24.98L27.66 24.26L28.76 23.62L29.98 23.06L31.33 22.57L32.86 22.15L34.59 21.79L36.58 21.51L38.95 21.28L41.91 21.13L46.06 21.03L60.00 21.00L73.94 21.03L78.09 21.13L81.05 21.28L83.42 21.51L85.41 21.79L87.14 22.15L88.67 22.57L90.02 23.06L91.24 23.62L92.34 24.26L93.33 24.98L94.22 25.78L95.02 26.67L95.74 27.66L96.38 28.76L96.94 29.98L97.43 31.33L97.85 32.86L98.21 34.59L98.49 36.58L98.72 38.95L98.87 41.91L98.97 46.06L99.00 60.00Z" fill="#252220" mask="url(#channels)"/><path d="M73.00 26.50L72.98 27.66L72.94 28.22L72.86 28.66L72.74 29.04L72.60 29.38L72.42 29.68L72.22 29.95L71.97 30.20L71.70 30.43L71.39 30.64L71.04 30.84L70.66 31.01L70.25 31.17L69.79 31.32L69.29 31.45L68.75 31.57L68.16 31.67L67.51 31.76L66.80 31.83L66.00 31.89L65.11 31.94L64.06 31.97L62.74 31.99L60.00 32.00L57.26 31.99L55.94 31.97L54.89 31.94L54.00 31.89L53.20 31.83L52.49 31.76L51.84 31.67L51.25 31.57L50.71 31.45L50.21 31.32L49.75 31.17L49.34 31.01L48.96 30.84L48.61 30.64L48.30 30.43L48.03 30.20L47.78 29.95L47.58 29.68L47.40 29.38L47.26 29.04L47.14 28.66L47.06 28.22L47.02 27.66L47.00 26.50L47.02 25.34L47.06 24.78L47.14 24.34L47.26 23.96L47.40 23.62L47.58 23.32L47.78 23.05L48.03 22.80L48.30 22.57L48.61 22.36L48.96 22.16L49.34 21.99L49.75 21.83L50.21 21.68L50.71 21.55L51.25 21.43L51.84 21.33L52.49 21.24L53.20 21.17L54.00 21.11L54.89 21.06L55.94 21.03L57.26 21.01L60.00 21.00L62.74 21.01L64.06 21.03L65.11 21.06L66.00 21.11L66.80 21.17L67.51 21.24L68.16 21.33L68.75 21.43L69.29 21.55L69.79 21.68L70.25 21.83L70.66 21.99L71.04 22.16L71.39 22.36L71.70 22.57L71.97 22.80L72.22 23.05L72.42 23.32L72.60 23.62L72.74 23.96L72.86 24.34L72.94 24.78L72.98 25.34L73.00 26.50Z" fill="#252220"/><path d="M99.00 60.00L98.99 62.74L98.97 64.06L98.94 65.11L98.89 66.00L98.83 66.80L98.76 67.51L98.67 68.16L98.57 68.75L98.45 69.29L98.32 69.79L98.17 70.25L98.01 70.66L97.84 71.04L97.64 71.39L97.43 71.70L97.20 71.97L96.95 72.22L96.68 72.42L96.38 72.60L96.04 72.74L95.66 72.86L95.22 72.94L94.66 72.98L93.50 73.00L92.34 72.98L91.78 72.94L91.34 72.86L90.96 72.74L90.62 72.60L90.32 72.42L90.05 72.22L89.80 71.97L89.57 71.70L89.36 71.39L89.16 71.04L88.99 70.66L88.83 70.25L88.68 69.79L88.55 69.29L88.43 68.75L88.33 68.16L88.24 67.51L88.17 66.80L88.11 66.00L88.06 65.11L88.03 64.06L88.01 62.74L88.00 60.00L88.01 57.26L88.03 55.94L88.06 54.89L88.11 54.00L88.17 53.20L88.24 52.49L88.33 51.84L88.43 51.25L88.55 50.71L88.68 50.21L88.83 49.75L88.99 49.34L89.16 48.96L89.36 48.61L89.57 48.30L89.80 48.03L90.05 47.78L90.32 47.58L90.62 47.40L90.96 47.26L91.34 47.14L91.78 47.06L92.34 47.02L93.50 47.00L94.66 47.02L95.22 47.06L95.66 47.14L96.04 47.26L96.38 47.40L96.68 47.58L96.95 47.78L97.20 48.03L97.43 48.30L97.64 48.61L97.84 48.96L98.01 49.34L98.17 49.75L98.32 50.21L98.45 50.71L98.57 51.25L98.67 51.84L98.76 52.49L98.83 53.20L98.89 54.00L98.94 54.89L98.97 55.94L98.99 57.26L99.00 60.00Z" fill="#252220"/><path d="M73.00 93.50L72.98 94.66L72.94 95.22L72.86 95.66L72.74 96.04L72.60 96.38L72.42 96.68L72.22 96.95L71.97 97.20L71.70 97.43L71.39 97.64L71.04 97.84L70.66 98.01L70.25 98.17L69.79 98.32L69.29 98.45L68.75 98.57L68.16 98.67L67.51 98.76L66.80 98.83L66.00 98.89L65.11 98.94L64.06 98.97L62.74 98.99L60.00 99.00L57.26 98.99L55.94 98.97L54.89 98.94L54.00 98.89L53.20 98.83L52.49 98.76L51.84 98.67L51.25 98.57L50.71 98.45L50.21 98.32L49.75 98.17L49.34 98.01L48.96 97.84L48.61 97.64L48.30 97.43L48.03 97.20L47.78 96.95L47.58 96.68L47.40 96.38L47.26 96.04L47.14 95.66L47.06 95.22L47.02 94.66L47.00 93.50L47.02 92.34L47.06 91.78L47.14 91.34L47.26 90.96L47.40 90.62L47.58 90.32L47.78 90.05L48.03 89.80L48.30 89.57L48.61 89.36L48.96 89.16L49.34 88.99L49.75 88.83L50.21 88.68L50.71 88.55L51.25 88.43L51.84 88.33L52.49 88.24L53.20 88.17L54.00 88.11L54.89 88.06L55.94 88.03L57.26 88.01L60.00 88.00L62.74 88.01L64.06 88.03L65.11 88.06L66.00 88.11L66.80 88.17L67.51 88.24L68.16 88.33L68.75 88.43L69.29 88.55L69.79 88.68L70.25 88.83L70.66 88.99L71.04 89.16L71.39 89.36L71.70 89.57L71.97 89.80L72.22 90.05L72.42 90.32L72.60 90.62L72.74 90.96L72.86 91.34L72.94 91.78L72.98 92.34L73.00 93.50Z" fill="#252220"/><path d="M32.00 60.00L31.99 62.74L31.97 64.06L31.94 65.11L31.89 66.00L31.83 66.80L31.76 67.51L31.67 68.16L31.57 68.75L31.45 69.29L31.32 69.79L31.17 70.25L31.01 70.66L30.84 71.04L30.64 71.39L30.43 71.70L30.20 71.97L29.95 72.22L29.68 72.42L29.38 72.60L29.04 72.74L28.66 72.86L28.22 72.94L27.66 72.98L26.50 73.00L25.34 72.98L24.78 72.94L24.34 72.86L23.96 72.74L23.62 72.60L23.32 72.42L23.05 72.22L22.80 71.97L22.57 71.70L22.36 71.39L22.16 71.04L21.99 70.66L21.83 70.25L21.68 69.79L21.55 69.29L21.43 68.75L21.33 68.16L21.24 67.51L21.17 66.80L21.11 66.00L21.06 65.11L21.03 64.06L21.01 62.74L21.00 60.00L21.01 57.26L21.03 55.94L21.06 54.89L21.11 54.00L21.17 53.20L21.24 52.49L21.33 51.84L21.43 51.25L21.55 50.71L21.68 50.21L21.83 49.75L21.99 49.34L22.16 48.96L22.36 48.61L22.57 48.30L22.80 48.03L23.05 47.78L23.32 47.58L23.62 47.40L23.96 47.26L24.34 47.14L24.78 47.06L25.34 47.02L26.50 47.00L27.66 47.02L28.22 47.06L28.66 47.14L29.04 47.26L29.38 47.40L29.68 47.58L29.95 47.78L30.20 48.03L30.43 48.30L30.64 48.61L30.84 48.96L31.01 49.34L31.17 49.75L31.32 50.21L31.45 50.71L31.57 51.25L31.67 51.84L31.76 52.49L31.83 53.20L31.89 54.00L31.94 54.89L31.97 55.94L31.99 57.26L32.00 60.00Z" fill="#252220"/></svg>
