<svg xmlns="http://www.w3.org/2000/svg" viewBox="0 0 120 120"><path d="M92.00 60.00L91.97 70.98L91.89 74.40L91.76 76.86L91.57 78.83L91.32 80.50L91.02 81.96L90.66 83.24L90.24 84.38L89.77 85.41L89.22 86.34L88.61 87.18L87.93 87.93L87.18 88.61L86.34 89.22L85.41 89.77L84.38 90.24L83.24 90.66L81.96 91.02L80.50 91.32L78.83 91.57L76.86 91.76L74.40 91.89L70.98 91.97L60.00 92.00L49.02 91.97L45.60 91.89L43.14 91.76L41.17 91.57L39.50 91.32L38.04 91.02L36.76 90.66L35.62 90.24L34.59 89.77L33.66 89.22L32.82 88.61L32.07 87.93L31.39 87.18L30.78 86.34L30.23 85.41L29.76 84.38L29.34 83.24L28.98 81.96L28.68 80.50L28.43 78.83L28.24 76.86L28.11 74.40L28.03 70.98L28.00 60.00L28.03 49.02L28.11 45.60L28.24 43.14L28.43 41.17L28.68 39.50L28.98 38.04L29.34 36.76L29.76 35.62L30.23 34.59L30.78 33.66L31.39 32.82L32.07 32.07L32.82 31.39L33.66 30.78L34.59 30.23L35.62 29.76L36.76 29.34L38.04 28.98L39.50 28.68L41.17 28.43L43.14 28.24L45.60 28.11L49.02 28.03L60.00 28.00L70.98 28.03L74.40 28.11L76.86 28.24L78.83 28.43L80.50 28.68L81.96 28.98L83.24 29.34L84.38 29.76L85.41 30.23L86.34 30.78L87.18 31.39L87.93 32.07L88.61 32.82L89.22 33.66L89.77 34.59L90.24 35.62L90.66 36.76L91.02 38.04L91.32 39.50L91.57 41.17L91.76 43.14L91.89 45.60L91.97 49.02L92.00 60.00Z" fill="#252220"/><path d="M75.50 11.50L75.48 14.19L75.43 15.29L75.35 16.14L75.23 16.84L75.08 17.45L74.90 18.00L74.68 18.48L74.42 18.92L74.13 19.33L73.81 19.69L73.44 20.03L73.03 20.33L72.59 20.60L72.09 20.85L71.55 21.07L70.96 21.27L70.31 21.44L69.59 21.59L68.79 21.72L67.89 21.82L66.85 21.90L65.60 21.95L63.96 21.99L60.00 22.00L56.04 21.99L54.40 21.95L53.15 21.90L52.11 21.82L51.21 21.72L50.41 21.59L49.69 21.44L49.04 21.27L48.45 21.07L47.91 20.85L47.41 20.60L46.97 20.33L46.56 20.03L46.19 19.69L45.87 19.33L45.58 18.92L45.32 18.48L45.10 18.00L44.92 17.45L44.77 16.84L44.65 16.14L44.57 15.29L44.52 14.19L44.50 11.50L44.52 8.81L44.57 7.71L44.65 6.86L44.77 6.16L44.92 5.55L45.10 5.00L45.32 4.52L45.58 4.08L45.87 3.67L46.19 3.31L46.56 2.97L46.97 2.67L47.41 2.40L47.91 2.15L48.45 1.93L49.04 1.73L49.69 1.56L50.41 1.41L51.21 1.28L52.11 1.18L53.15 1.10L54.40 1.05L56.04 1.01L60.00 1.00L63.96 1.01L65.60 1.05L66.85 1.10L67.89 1.18L68.79 1.28L69.59 1.41L70.31 1.56L70.96 1.73L71.55 1.93L72.09 2.15L72.59 2.40L73.03 2.67L73.44 2.97L73.81 3.31L74.13 3.67L74.42 4.08L74.68 4.52L74.90 5.00L75.08 5.55L75.23 6.16L75.35 6.86L75.43 7.71L75.48 8.81L75.50 11.50Z" fill="#252220"/><path d="M119.00 60.00L118.99 63.96L118.95 65.60L118.90 66.85L118.82 67.89L118.72 68.79L118.59 69.59L118.44 70.31L118.27 70.96L118.07 71.55L117.85 72.09L117.60 72.59L117.33 73.03L117.03 73.44L116.69 73.81L116.33 74.13L115.92 74.42L115.48 74.68L115.00 74.90L114.45 75.08L113.84 75.23L113.14 75.35L112.29 75.43L111.19 75.48L108.50 75.50L105.81 75.48L104.71 75.43L103.86 75.35L103.16 75.23L102.55 75.08L102.00 74.90L101.52 74.68L101.08 74.42L100.67 74.13L100.31 73.81L99.97 73.44L99.67 73.03L99.40 72.59L99.15 72.09L98.93 71.55L98.73 70.96L98.56 70.31L98.41 69.59L98.28 68.79L98.18 67.89L98.10 66.85L98.05 65.60L98.01 63.96L98.00 60.00L98.01 56.04L98.05 54.40L98.10 53.15L98.18 52.11L98.28 51.21L98.41 50.41L98.56 49.69L98.73 49.04L98.93 48.45L99.15 47.91L99.40 47.41L99.67 46.97L99.97 46.56L100.31 46.19L100.67 45.87L101.08 45.58L101.52 45.32L102.00 45.10L102.55 44.92L103.16 44.77L103.86 44.65L104.71 44.57L105.81 44.52L108.50 44.50L111.19 44.52L112.29 44.57L113.14 44.65L113.84 44.77L114.45 44.92L115.00 45.10L115.48 45.32L115.92 45.58L116.33 45.87L116.69 46.19L117.03 46.56L117.33 46.97L117.60 47.41L117.85 47.91L118.07 48.45L118.27 49.04L118.44 49.69L118.59 50.41L118.72 51.21L118.82 52.11L118.90 53.15L118.95 54.40L118.99 56.04L119.00 60.00Z" fill="#252220"/><path d="M75.50 108.50L75.48 111.19L75.43 112.29L75.35 113.14L75.23 113.84L75.08 114.45L74.90 115.00L74.68 115.48L74.42 115.92L74.13 116.33L73.81 116.69L73.44 117.03L73.03 117.33L72.59 117.60L72.09 117.85L71.55 118.07L70.96 118.27L70.31 118.44L69.59 118.59L68.79 118.72L67.89 118.82L66.85 118.90L65.60 118.95L63.96 118.99L60.00 119.00L56.04 118.99L54.40 118.95L53.15 118.90L52.11 118.82L51.21 118.72L50.41 118.59L49.69 118.44L49.04 118.27L48.45 118.07L47.91 117.85L47.41 117.60L46.97 117.33L46.56 117.03L46.19 116.69L45.87 116.33L45.58 115.92L45.32 115.48L45.10 115.00L44.92 114.45L44.77 113.84L44.65 113.14L44.57 112.29L44.52 111.19L44.50 108.50L44.52 105.81L44.57 104.71L44.65 103.86L44.77 103.16L44.92 102.55L45.10 102.00L45.32 101.52L45.58 101.08L45.87 100.67L46.19 100.31L46.56 99.97L46.97 99.67L47.41 99.40L47.91 99.15L48.45 98.93L49.04 98.73L49.69 98.56L50.41 98.41L51.21 98.28L52.11 98.18L53.15 98.10L54.40 98.05L56.04 98.01L60.00 98.00L63.96 98.01L65.60 98.05L66.85 98.10L67.89 98.18L68.79 98.28L69.59 98.41L70.31 98.56L70.96 98.73L71.55 98.93L72.09 99.15L72.59 99.40L73.03 99.67L73.44 99.97L73.81 100.31L74.13 100.67L74.42 101.08L74.68 101.52L74.90 102.00L75.08 102.55L75.23 103.16L75.35 103.86L75.43 104.71L75.48 105.81L75.50 108.50Z" fill="#252220"/><path d="M22.00 60.00L21.99 63.96L21.95 65.60L21.90 66.85L21.82 67.89L21.72 68.79L21.59 69.59L21.44 70.31L21.27 70.96L21.07 71.55L20.85 72.09L20.60 72.59L20.33 73.03L20.03 73.44L19.69 73.81L19.33 74.13L18.92 74.42L18.48 74.68L18.00 74.90L17.45 75.08L16.84 75.23L16.14 75.35L15.29 75.43L14.19 75.48L11.50 75.50L8.81 75.48L7.71 75.43L6.86 75.35L6.16 75.23L5.55 75.08L5.00 74.90L4.52 74.68L4.08 74.42L3.67 74.13L3.31 73.81L2.97 73.44L2.67 73.03L2.40 72.59L2.15 72.09L1.93 71.55L1.73 70.96L1.56 70.31L1.41 69.59L1.28 68.79L1.18 67.89L1.10 66.85L1.05 65.60L1.01 63.96L1.00 60.00L1.01 56.04L1.05 54.40L1.10 53.15L1.18 52.11L1.28 51.21L1.41 50.41L1.56 49.69L1.73 49.04L1.93 48.45L2.15 47.91L2.40 47.41L2.67 46.97L2.97 46.56L3.31 46.19L3.67 45.87L4.08 45.58L4.52 45.32L5.00 45.10L5.55 44.92L6.16 44.77L6.86 44.65L7.71 44.57L8.81 44.52L11.50 44.50L14.19 44.52L15.29 44.57L16.14 44.65L16.84 44.77L17.45 44.92L18.00 45.10L18.48 45.32L18.92 45.58L19.33 45.87L19.69 46.19L20.03 46.56L20.33 46.97L20.60 47.41L20.85 47.91L21.07 48.45L21.27 49.04L21.44 49.69L21.59 50.41L21.72 51.21L21.82 52.11L21.90 53.15L21.95 54.40L21.99 56.04L22.00 60.00Z" fill="#252220"/></svg>
