<svg xmlns="http://www.w3.org/2000/svg" viewBox="0 0 120 120"><path d="M91.98 61.26L91.68 67.68L91.43 70.90L91.13 73.47L90.76 75.67L90.32 77.62L89.81 79.37L89.21 80.97L88.55 82.42L87.80 83.76L86.97 84.98L86.05 86.09L85.05 87.10L83.96 88.02L82.78 88.84L81.50 89.57L80.11 90.22L78.61 90.77L76.97 91.23L75.18 91.61L73.21 91.90L70.98 92.09L68.40 92.19L65.17 92.19L58.74 91.98L52.32 91.68L49.10 91.43L46.53 91.13L44.33 90.76L42.38 90.32L40.63 89.81L39.03 89.21L37.58 88.55L36.24 87.80L35.02 86.97L33.91 86.05L32.90 85.05L31.98 83.96L31.16 82.78L30.43 81.50L29.78 80.11L29.23 78.61L28.77 76.97L28.39 75.18L28.10 73.21L27.91 70.98L27.81 68.40L27.81 65.17L28.02 58.74L28.32 52.32L28.57 49.10L28.87 46.53L29.24 44.33L29.68 42.38L30.19 40.63L30.79 39.03L31.45 37.58L32.20 36.24L33.03 35.02L33.95 33.91L34.95 32.90L36.04 31.98L37.22 31.16L38.50 30.43L39.89 29.78L41.39 29.23L43.03 28.77L44.82 28.39L46.79 28.10L49.02 27.91L51.60 27.81L54.83 27.81L61.26 28.02L67.68 28.32L70.90 28.57L73.47 28.87L75.67 29.24L77.62 29.68L79.37 30.19L80.97 30.79L82.42 31.45L83.76 32.20L84.98 33.03L86.09 33.95L87.10 34.95L88.02 36.04L88.84 37.22L89.57 38.50L90.22 39.89L90.77 41.39L91.23 43.03L91.61 44.82L91.90 46.79L92.09 49.02L92.19 51.60L92.19 54.83L91.98 61.26Z" fill="#252220"/><path d="M73.48 16.14L73.39 17.55L73.30 18.25L73.18 18.81L73.03 19.28L72.86 19.70L72.65 20.08L72.41 20.42L72.13 20.73L71.82 21.01L71.48 21.27L71.10 21.50L70.68 21.71L70.23 21.89L69.73 22.05L69.19 22.20L68.61 22.32L67.98 22.42L67.29 22.49L66.54 22.55L65.71 22.58L64.77 22.59L63.69 22.58L62.33 22.53L59.62 22.39L56.91 22.23L55.55 22.13L54.47 22.03L53.54 21.91L52.71 21.79L51.97 21.65L51.30 21.50L50.68 21.33L50.12 21.15L49.60 20.95L49.12 20.73L48.69 20.50L48.30 20.24L47.95 19.97L47.63 19.68L47.36 19.37L47.12 19.03L46.92 18.66L46.75 18.27L46.62 17.83L46.53 17.34L46.47 16.77L46.46 16.06L46.52 14.66L46.61 13.25L46.70 12.55L46.82 11.99L46.97 11.52L47.14 11.10L47.35 10.72L47.59 10.38L47.87 10.07L48.18 9.79L48.52 9.53L48.90 9.30L49.32 9.09L49.77 8.91L50.27 8.75L50.81 8.60L51.39 8.48L52.02 8.38L52.71 8.31L53.46 8.25L54.29 8.22L55.23 8.21L56.31 8.22L57.67 8.27L60.38 8.41L63.09 8.57L64.45 8.67L65.53 8.77L66.46 8.89L67.29 9.01L68.03 9.15L68.70 9.30L69.32 9.47L69.88 9.65L70.40 9.85L70.88 10.07L71.31 10.30L71.70 10.56L72.05 10.83L72.37 11.12L72.64 11.43L72.88 11.77L73.08 12.14L73.25 12.53L73.38 12.97L73.47 13.46L73.53 14.03L73.54 14.74L73.48 16.14Z" fill="#252220"/><path d="M112.80 59.76L112.88 62.48L112.90 63.84L112.89 64.93L112.86 65.86L112.81 66.69L112.74 67.44L112.64 68.13L112.53 68.76L112.40 69.34L112.24 69.87L112.07 70.36L111.88 70.81L111.66 71.22L111.42 71.60L111.16 71.94L110.87 72.24L110.55 72.51L110.21 72.74L109.83 72.95L109.40 73.11L108.92 73.25L108.36 73.35L107.66 73.43L106.25 73.49L104.85 73.52L104.14 73.50L103.57 73.43L103.09 73.33L102.65 73.19L102.26 73.01L101.90 72.80L101.56 72.55L101.26 72.27L100.97 71.95L100.71 71.59L100.46 71.20L100.24 70.76L100.03 70.28L99.84 69.76L99.67 69.19L99.52 68.57L99.38 67.89L99.26 67.15L99.15 66.32L99.06 65.39L98.98 64.31L98.90 62.95L98.80 60.24L98.72 57.52L98.70 56.16L98.71 55.07L98.74 54.14L98.79 53.31L98.86 52.56L98.96 51.87L99.07 51.24L99.20 50.66L99.36 50.13L99.53 49.64L99.72 49.19L99.94 48.78L100.18 48.40L100.44 48.06L100.73 47.76L101.05 47.49L101.39 47.26L101.77 47.05L102.20 46.89L102.68 46.75L103.24 46.65L103.94 46.57L105.35 46.51L106.75 46.48L107.46 46.50L108.03 46.57L108.51 46.67L108.95 46.81L109.34 46.99L109.70 47.20L110.04 47.45L110.34 47.73L110.63 48.05L110.89 48.41L111.14 48.80L111.36 49.24L111.57 49.72L111.76 50.24L111.93 50.81L112.08 51.43L112.22 52.11L112.34 52.85L112.45 53.68L112.54 54.61L112.62 55.69L112.70 57.05L112.80 59.76Z" fill="#252220"/><path d="M73.49 105.02L73.40 106.42L73.32 107.13L73.21 107.69L73.07 108.16L72.90 108.59L72.69 108.96L72.45 109.31L72.18 109.62L71.87 109.90L71.53 110.16L71.15 110.40L70.74 110.61L70.28 110.80L69.79 110.96L69.26 111.11L68.68 111.24L68.05 111.34L67.36 111.43L66.61 111.49L65.78 111.53L64.84 111.55L63.75 111.54L62.39 111.51L59.68 111.39L56.97 111.26L55.61 111.17L54.53 111.08L53.60 110.97L52.77 110.85L52.03 110.72L51.35 110.58L50.74 110.41L50.17 110.24L49.65 110.04L49.17 109.83L48.74 109.60L48.35 109.35L47.99 109.08L47.67 108.79L47.40 108.48L47.15 108.15L46.95 107.78L46.78 107.39L46.64 106.95L46.54 106.46L46.49 105.90L46.47 105.19L46.51 103.78L46.60 102.38L46.68 101.67L46.79 101.11L46.93 100.64L47.10 100.21L47.31 99.84L47.55 99.49L47.82 99.18L48.13 98.90L48.47 98.64L48.85 98.40L49.26 98.19L49.72 98.00L50.21 97.84L50.74 97.69L51.32 97.56L51.95 97.46L52.64 97.37L53.39 97.31L54.22 97.27L55.16 97.25L56.25 97.26L57.61 97.29L60.32 97.41L63.03 97.54L64.39 97.63L65.47 97.72L66.40 97.83L67.23 97.95L67.97 98.08L68.65 98.22L69.26 98.39L69.83 98.56L70.35 98.76L70.83 98.97L71.26 99.20L71.65 99.45L72.01 99.72L72.33 100.01L72.60 100.32L72.85 100.65L73.05 101.02L73.22 101.41L73.36 101.85L73.46 102.34L73.51 102.90L73.53 103.61L73.49 105.02Z" fill="#252220"/><path d="M21.49 59.64L21.62 62.35L21.67 63.71L21.68 64.80L21.67 65.73L21.63 66.56L21.57 67.32L21.49 68.00L21.39 68.63L21.27 69.22L21.12 69.75L20.96 70.25L20.77 70.70L20.56 71.12L20.33 71.49L20.08 71.84L19.79 72.15L19.48 72.42L19.14 72.66L18.76 72.87L18.34 73.05L17.87 73.19L17.31 73.30L16.61 73.39L15.20 73.48L13.79 73.54L13.09 73.52L12.52 73.47L12.03 73.37L11.59 73.24L11.20 73.07L10.83 72.87L10.49 72.63L10.18 72.35L9.89 72.04L9.62 71.68L9.37 71.29L9.14 70.86L8.92 70.39L8.72 69.87L8.54 69.30L8.38 68.68L8.23 68.01L8.09 67.27L7.97 66.44L7.86 65.51L7.76 64.43L7.66 63.07L7.51 60.36L7.38 57.65L7.33 56.29L7.32 55.20L7.33 54.27L7.37 53.44L7.43 52.68L7.51 52.00L7.61 51.37L7.73 50.78L7.88 50.25L8.04 49.75L8.23 49.30L8.44 48.88L8.67 48.51L8.92 48.16L9.21 47.85L9.52 47.58L9.86 47.34L10.24 47.13L10.66 46.95L11.13 46.81L11.69 46.70L12.39 46.61L13.80 46.52L15.21 46.46L15.91 46.48L16.48 46.53L16.97 46.63L17.41 46.76L17.80 46.93L18.17 47.13L18.51 47.37L18.82 47.65L19.11 47.96L19.38 48.32L19.63 48.71L19.86 49.14L20.08 49.61L20.28 50.13L20.46 50.70L20.62 51.32L20.77 51.99L20.91 52.73L21.03 53.56L21.14 54.49L21.24 55.57L21.34 56.93L21.49 59.64Z" fill="#252220"/></svg>
