<svg xmlns="http://www.w3.org/2000/svg" viewBox="0 0 120 120"><path d="M87.50 60.00L87.48 69.44L87.41 72.38L87.29 74.49L87.13 76.19L86.92 77.62L86.66 78.87L86.35 79.97L85.99 80.95L85.58 81.84L85.11 82.64L84.59 83.36L84.01 84.01L83.36 84.59L82.64 85.11L81.84 85.58L80.95 85.99L79.97 86.35L78.87 86.66L77.62 86.92L76.19 87.13L74.49 87.29L72.38 87.41L69.44 87.48L60.00 87.50L50.56 87.48L47.62 87.41L45.51 87.29L43.81 87.13L42.38 86.92L41.13 86.66L40.03 86.35L39.05 85.99L38.16 85.58L37.36 85.11L36.64 84.59L35.99 84.01L35.41 83.36L34.89 82.64L34.42 81.84L34.01 80.95L33.65 79.97L33.34 78.87L33.08 77.62L32.87 76.19L32.71 74.49L32.59 72.38L32.52 69.44L32.50 60.00L32.52 50.56L32.59 47.62L32.71 45.51L32.87 43.81L33.08 42.38L33.34 41.13L33.65 40.03L34.01 39.05L34.42 38.16L34.89 37.36L35.41 36.64L35.99 35.99L36.64 35.41L37.36 34.89L38.16 34.42L39.05 34.01L40.03 33.65L41.13 33.34L42.38 33.08L43.81 32.87L45.51 32.71L47.62 32.59L50.56 32.52L60.00 32.50L69.44 32.52L72.38 32.59L74.49 32.71L76.19 32.87L77.62 33.08L78.87 33.34L79.97 33.65L80.95 34.01L81.84 34.42L82.64 34.89L83.36 35.41L84.01 35.99L84.59 36.64L85.11 37.36L85.58 38.16L85.99 39.05L86.35 40.03L86.66 41.13L86.92 42.38L87.13 43.81L87.29 45.51L87.41 47.62L87.48 50.56L87.50 60.00Z" fill="#252220"/><path d="M77.00 14.00L76.98 16.69L76.93 17.79L76.84 18.64L76.71 19.34L76.54 19.95L76.34 20.50L76.10 20.98L75.82 21.42L75.50 21.83L75.14 22.19L74.74 22.53L74.30 22.83L73.80 23.10L73.26 23.35L72.67 23.57L72.02 23.77L71.31 23.94L70.52 24.09L69.64 24.22L68.65 24.32L67.51 24.40L66.14 24.45L64.35 24.49L60.00 24.50L55.65 24.49L53.86 24.45L52.49 24.40L51.35 24.32L50.36 24.22L49.48 24.09L48.69 23.94L47.98 23.77L47.33 23.57L46.74 23.35L46.20 23.10L45.70 22.83L45.26 22.53L44.86 22.19L44.50 21.83L44.18 21.42L43.90 20.98L43.66 20.50L43.46 19.95L43.29 19.34L43.16 18.64L43.07 17.79L43.02 16.69L43.00 14.00L43.02 11.31L43.07 10.21L43.16 9.36L43.29 8.66L43.46 8.05L43.66 7.50L43.90 7.02L44.18 6.58L44.50 6.17L44.86 5.81L45.26 5.47L45.70 5.17L46.20 4.90L46.74 4.65L47.33 4.43L47.98 4.23L48.69 4.06L49.48 3.91L50.36 3.78L51.35 3.68L52.49 3.60L53.86 3.55L55.65 3.51L60.00 3.50L64.35 3.51L66.14 3.55L67.51 3.60L68.65 3.68L69.64 3.78L70.52 3.91L71.31 4.06L72.02 4.23L72.67 4.43L73.26 4.65L73.80 4.90L74.30 5.17L74.74 5.47L75.14 5.81L75.50 6.17L75.82 6.58L76.10 7.02L76.34 7.50L76.54 8.05L76.71 8.66L76.84 9.36L76.93 10.21L76.98 11.31L77.00 14.00Z" fill="#252220"/><path d="M116.50 60.00L116.49 64.35L116.45 66.14L116.40 67.51L116.32 68.65L116.22 69.64L116.09 70.52L115.94 71.31L115.77 72.02L115.57 72.67L115.35 73.26L115.10 73.80L114.83 74.30L114.53 74.74L114.19 75.14L113.83 75.50L113.42 75.82L112.98 76.10L112.50 76.34L111.95 76.54L111.34 76.71L110.64 76.84L109.79 76.93L108.69 76.98L106.00 77.00L103.31 76.98L102.21 76.93L101.36 76.84L100.66 76.71L100.05 76.54L99.50 76.34L99.02 76.10L98.58 75.82L98.17 75.50L97.81 75.14L97.47 74.74L97.17 74.30L96.90 73.80L96.65 73.26L96.43 72.67L96.23 72.02L96.06 71.31L95.91 70.52L95.78 69.64L95.68 68.65L95.60 67.51L95.55 66.14L95.51 64.35L95.50 60.00L95.51 55.65L95.55 53.86L95.60 52.49L95.68 51.35L95.78 50.36L95.91 49.48L96.06 48.69L96.23 47.98L96.43 47.33L96.65 46.74L96.90 46.20L97.17 45.70L97.47 45.26L97.81 44.86L98.17 44.50L98.58 44.18L99.02 43.90L99.50 43.66L100.05 43.46L100.66 43.29L101.36 43.16L102.21 43.07L103.31 43.02L106.00 43.00L108.69 43.02L109.79 43.07L110.64 43.16L111.34 43.29L111.95 43.46L112.50 43.66L112.98 43.90L113.42 44.18L113.83 44.50L114.19 44.86L114.53 45.26L114.83 45.70L115.10 46.20L115.35 46.74L115.57 47.33L115.77 47.98L115.94 48.69L116.09 49.48L116.22 50.36L116.32 51.35L116.40 52.49L116.45 53.86L116.49 55.65L116.50 60.00Z" fill="#252220"/><path d="M77.00 106.00L76.98 108.69L76.93 109.79L76.84 110.64L76.71 111.34L76.54 111.95L76.34 112.50L76.10 112.98L75.82 113.42L75.50 113.83L75.14 114.19L74.74 114.53L74.30 114.83L73.80 115.10L73.26 115.35L72.67 115.57L72.02 115.77L71.31 115.94L70.52 116.09L69.64 116.22L68.65 116.32L67.51 116.40L66.14 116.45L64.35 116.49L60.00 116.50L55.65 116.49L53.86 116.45L52.49 116.40L51.35 116.32L50.36 116.22L49.48 116.09L48.69 115.94L47.98 115.77L47.33 115.57L46.74 115.35L46.20 115.10L45.70 114.83L45.26 114.53L44.86 114.19L44.50 113.83L44.18 113.42L43.90 112.98L43.66 112.50L43.46 111.95L43.29 111.34L43.16 110.64L43.07 109.79L43.02 108.69L43.00 106.00L43.02 103.31L43.07 102.21L43.16 101.36L43.29 100.66L43.46 100.05L43.66 99.50L43.90 99.02L44.18 98.58L44.50 98.17L44.86 97.81L45.26 97.47L45.70 97.17L46.20 96.90L46.74 96.65L47.33 96.43L47.98 96.23L48.69 96.06L49.48 95.91L50.36 95.78L51.35 95.68L52.49 95.60L53.86 95.55L55.65 95.51L60.00 95.50L64.35 95.51L66.14 95.55L67.51 95.60L68.65 95.68L69.64 95.78L70.52 95.91L71.31 96.06L72.02 96.23L72.67 96.43L73.26 96.65L73.80 96.90L74.30 97.17L74.74 97.47L75.14 97.81L75.50 98.17L75.82 98.58L76.10 99.02L76.34 99.50L76.54 100.05L76.71 100.66L76.84 101.36L76.93 102.21L76.98 103.31L77.00 106.00Z" fill="#252220"/><path d="M24.50 60.00L24.49 64.35L24.45 66.14L24.40 67.51L24.32 68.65L24.22 69.64L24.09 70.52L23.94 71.31L23.77 72.02L23.57 72.67L23.35 73.26L23.10 73.80L22.83 74.30L22.53 74.74L22.19 75.14L21.83 75.50L21.42 75.82L20.98 76.10L20.50 76.34L19.95 76.54L19.34 76.71L18.64 76.84L17.79 76.93L16.69 76.98L14.00 77.00L11.31 76.98L10.21 76.93L9.36 76.84L8.66 76.71L8.05 76.54L7.50 76.34L7.02 76.10L6.58 75.82L6.17 75.50L5.81 75.14L5.47 74.74L5.17 74.30L4.90 73.80L4.65 73.26L4.43 72.67L4.23 72.02L4.06 71.31L3.91 70.52L3.78 69.64L3.68 68.65L3.60 67.51L3.55 66.14L3.51 64.35L3.50 60.00L3.51 55.65L3.55 53.86L3.60 52.49L3.68 51.35L3.78 50.36L3.91 49.48L4.06 48.69L4.23 47.98L4.43 47.33L4.65 46.74L4.90 46.20L5.17 45.70L5.47 45.26L5.81 44.86L6.17 44.50L6.58 44.18L7.02 43.90L7.50 43.66L8.05 43.46L8.66 43.29L9.36 43.16L10.21 43.07L11.31 43.02L14.00 43.00L16.69 43.02L17.79 43.07L18.64 43.16L19.34 43.29L19.95 43.46L20.50 43.66L20.98 43.90L21.42 44.18L21.83 44.50L22.19 44.86L22.53 45.26L22.83 45.70L23.10 46.20L23.35 46.74L23.57 47.33L23.77 47.98L23.94 48.69L24.09 49.48L24.22 50.36L24.32 51.35L24.40 52.49L24.45 53.86L24.49 55.65L24.50 60.00Z" fill="#252220"/></svg>
