<svg xmlns="http://www.w3.org/2000/svg" viewBox="0 0 120 120"><path d="M92.00 60.00L91.96 66.43L91.84 69.66L91.64 72.24L91.35 74.45L90.99 76.41L90.54 78.19L90.02 79.80L89.40 81.28L88.71 82.65L87.93 83.90L87.06 85.05L86.10 86.10L85.05 87.06L83.90 87.93L82.65 88.71L81.28 89.40L79.80 90.02L78.19 90.54L76.41 90.99L74.45 91.35L72.24 91.64L69.66 91.84L66.43 91.96L60.00 92.00L53.57 91.96L50.34 91.84L47.76 91.64L45.55 91.35L43.59 90.99L41.81 90.54L40.20 90.02L38.72 89.40L37.35 88.71L36.10 87.93L34.95 87.06L33.90 86.10L32.94 85.05L32.07 83.90L31.29 82.65L30.60 81.28L29.98 79.80L29.46 78.19L29.01 76.41L28.65 74.45L28.36 72.24L28.16 69.66L28.04 66.43L28.00 60.00L28.04 53.57L28.16 50.34L28.36 47.76L28.65 45.55L29.01 43.59L29.46 41.81L29.98 40.20L30.60 38.72L31.29 37.35L32.07 36.10L32.94 34.95L33.90 33.90L34.95 32.94L36.10 32.07L37.35 31.29L38.72 30.60L40.20 29.98L41.81 29.46L43.59 29.01L45.55 28.65L47.76 28.36L50.34 28.16L53.57 28.04L60.00 28.00L66.43 28.04L69.66 28.16L72.24 28.36L74.45 28.65L76.41 29.01L78.19 29.46L79.80 29.98L81.28 30.60L82.65 31.29L83.90 32.07L85.05 32.94L86.10 33.90L87.06 34.95L87.93 36.10L88.71 37.35L89.40 38.72L90.02 40.20L90.54 41.81L90.99 43.59L91.35 45.55L91.64 47.76L91.84 50.34L91.96 53.57L92.00 60.00Z" fill="#252220"/><path d="M73.50 15.00L73.48 16.41L73.43 17.11L73.35 17.68L73.23 18.16L73.07 18.59L72.89 18.98L72.66 19.33L72.40 19.66L72.11 19.95L71.78 20.23L71.41 20.48L71.01 20.71L70.57 20.92L70.08 21.11L69.55 21.28L68.98 21.43L68.35 21.57L67.67 21.68L66.92 21.78L66.10 21.86L65.16 21.92L64.08 21.96L62.71 21.99L60.00 22.00L57.29 21.99L55.92 21.96L54.84 21.92L53.90 21.86L53.08 21.78L52.33 21.68L51.65 21.57L51.02 21.43L50.45 21.28L49.92 21.11L49.43 20.92L48.99 20.71L48.59 20.48L48.22 20.23L47.89 19.95L47.60 19.66L47.34 19.33L47.11 18.98L46.93 18.59L46.77 18.16L46.65 17.68L46.57 17.11L46.52 16.41L46.50 15.00L46.52 13.59L46.57 12.89L46.65 12.32L46.77 11.84L46.93 11.41L47.11 11.02L47.34 10.67L47.60 10.34L47.89 10.05L48.22 9.77L48.59 9.52L48.99 9.29L49.43 9.08L49.92 8.89L50.45 8.72L51.02 8.57L51.65 8.43L52.33 8.32L53.08 8.22L53.90 8.14L54.84 8.08L55.92 8.04L57.29 8.01L60.00 8.00L62.71 8.01L64.08 8.04L65.16 8.08L66.10 8.14L66.92 8.22L67.67 8.32L68.35 8.43L68.98 8.57L69.55 8.72L70.08 8.89L70.57 9.08L71.01 9.29L71.41 9.52L71.78 9.77L72.11 10.05L72.40 10.34L72.66 10.67L72.89 11.02L73.07 11.41L73.23 11.84L73.35 12.32L73.43 12.89L73.48 13.59L73.50 15.00Z" fill="#252220"/><path d="M112.00 60.00L111.99 62.71L111.96 64.08L111.92 65.16L111.86 66.10L111.78 66.92L111.68 67.67L111.57 68.35L111.43 68.98L111.28 69.55L111.11 70.08L110.92 70.57L110.71 71.01L110.48 71.41L110.23 71.78L109.95 72.11L109.66 72.40L109.33 72.66L108.98 72.89L108.59 73.07L108.16 73.23L107.68 73.35L107.11 73.43L106.41 73.48L105.00 73.50L103.59 73.48L102.89 73.43L102.32 73.35L101.84 73.23L101.41 73.07L101.02 72.89L100.67 72.66L100.34 72.40L100.05 72.11L99.77 71.78L99.52 71.41L99.29 71.01L99.08 70.57L98.89 70.08L98.72 69.55L98.57 68.98L98.43 68.35L98.32 67.67L98.22 66.92L98.14 66.10L98.08 65.16L98.04 64.08L98.01 62.71L98.00 60.00L98.01 57.29L98.04 55.92L98.08 54.84L98.14 53.90L98.22 53.08L98.32 52.33L98.43 51.65L98.57 51.02L98.72 50.45L98.89 49.92L99.08 49.43L99.29 48.99L99.52 48.59L99.77 48.22L100.05 47.89L100.34 47.60L100.67 47.34L101.02 47.11L101.41 46.93L101.84 46.77L102.32 46.65L102.89 46.57L103.59 46.52L105.00 46.50L106.41 46.52L107.11 46.57L107.68 46.65L108.16 46.77L108.59 46.93L108.98 47.11L109.33 47.34L109.66 47.60L109.95 47.89L110.23 48.22L110.48 48.59L110.71 48.99L110.92 49.43L111.11 49.92L111.28 50.45L111.43 51.02L111.57 51.65L111.68 52.33L111.78 53.08L111.86 53.90L111.92 54.84L111.96 55.92L111.99 57.29L112.00 60.00Z" fill="#252220"/><path d="M73.50 105.00L73.48 106.41L73.43 107.11L73.35 107.68L73.23 108.16L73.07 108.59L72.89 108.98L72.66 109.33L72.40 109.66L72.11 109.95L71.78 110.23L71.41 110.48L71.01 110.71L70.57 110.92L70.08 111.11L69.55 111.28L68.98 111.43L68.35 111.57L67.67 111.68L66.92 111.78L66.10 111.86L65.16 111.92L64.08 111.96L62.71 111.99L60.00 112.00L57.29 111.99L55.92 111.96L54.84 111.92L53.90 111.86L53.08 111.78L52.33 111.68L51.65 111.57L51.02 111.43L50.45 111.28L49.92 111.11L49.43 110.92L48.99 110.71L48.59 110.48L48.22 110.23L47.89 109.95L47.60 109.66L47.34 109.33L47.11 108.98L46.93 108.59L46.77 108.16L46.65 107.68L46.57 107.11L46.52 106.41L46.50 105.00L46.52 103.59L46.57 102.89L46.65 102.32L46.77 101.84L46.93 101.41L47.11 101.02L47.34 100.67L47.60 100.34L47.89 100.05L48.22 99.77L48.59 99.52L48.99 99.29L49.43 99.08L49.92 98.89L50.45 98.72L51.02 98.57L51.65 98.43L52.33 98.32L53.08 98.22L53.90 98.14L54.84 98.08L55.92 98.04L57.29 98.01L60.00 98.00L62.71 98.01L64.08 98.04L65.16 98.08L66.10 98.14L66.92 98.22L67.67 98.32L68.35 98.43L68.98 98.57L69.55 98.72L70.08 98.89L70.57 99.08L71.01 99.29L71.41 99.52L71.78 99.77L72.11 100.05L72.40 100.34L72.66 100.67L72.89 101.02L73.07 101.41L73.23 101.84L73.35 102.32L73.43 102.89L73.48 103.59L73.50 105.00Z" fill="#252220"/><path d="M22.00 60.00L21.99 62.71L21.96 64.08L21.92 65.16L21.86 66.10L21.78 66.92L21.68 67.67L21.57 68.35L21.43 68.98L21.28 69.55L21.11 70.08L20.92 70.57L20.71 71.01L20.48 71.41L20.23 71.78L19.95 72.11L19.66 72.40L19.33 72.66L18.98 72.89L18.59 73.07L18.16 73.23L17.68 73.35L17.11 73.43L16.41 73.48L15.00 73.50L13.59 73.48L12.89 73.43L12.32 73.35L11.84 73.23L11.41 73.07L11.02 72.89L10.67 72.66L10.34 72.40L10.05 72.11L9.77 71.78L9.52 71.41L9.29 71.01L9.08 70.57L8.89 70.08L8.72 69.55L8.57 68.98L8.43 68.35L8.32 67.67L8.22 66.92L8.14 66.10L8.08 65.16L8.04 64.08L8.01 62.71L8.00 60.00L8.01 57.29L8.04 55.92L8.08 54.84L8.14 53.90L8.22 53.08L8.32 52.33L8.43 51.65L8.57 51.02L8.72 50.45L8.89 49.92L9.08 49.43L9.29 48.99L9.52 48.59L9.77 48.22L10.05 47.89L10.34 47.60L10.67 47.34L11.02 47.11L11.41 46.93L11.84 46.77L12.32 46.65L12.89 46.57L13.59 46.52L15.00 46.50L16.41 46.52L17.11 46.57L17.68 46.65L18.16 46.77L18.59 46.93L18.98 47.11L19.33 47.34L19.66 47.60L19.95 47.89L20.23 48.22L20.48 48.59L20.71 48.99L20.92 49.43L21.11 49.92L21.28 50.45L21.43 51.02L21.57 51.65L21.68 52.33L21.78 53.08L21.86 53.90L21.92 54.84L21.96 55.92L21.99 57.29L22.00 60.00Z" fill="#252220"/></svg>
