<svg xmlns="http://www.w3.org/2000/svg" viewBox="0 0 120 120"><path d="M99 60C99 99.25 99.25 99 60 99C20.75 99 21 99.25 21 60C21 20.75 20.75 21 60 21C99.25 21 99 20.75 99 60ZM38 21.12L82 21.12L82 32C82 41.4 78.79 43 60 43C41.21 43 38 41.4 38 32ZM98.88 38L98.88 82L88 82C78.6 82 77 78.79 77 60C77 41.21 78.6 38 88 38ZM82 98.88L38 98.88L38 88C38 78.6 41.21 77 60 77C78.79 77 82 78.6 82 88ZM21.12 82L21.12 38L32 38C41.4 38 43 41.21 43 60C43 78.79 41.4 82 32 82Z" fill="#252220" fill-rule="evenodd"/><path d="M45 21L75 21L75 28.5C75 34.91 72.81 36 60 36C47.19 36 45 34.91 45 28.5Z" fill="#252220"/><path d="M99 45L99 75L91.5 75C85.09 75 84 72.81 84 60C84 47.19 85.09 45 91.5 45Z" fill="#252220"/><path d="M75 99L45 99L45 91.5C45 85.09 47.19 84 60 84C72.81 84 75 85.09 75 91.5Z" fill="#252220"/><path d="M21 75L21 45L28.5 45C34.91 45 36 47.19 36 60C36 72.81 34.91 75 28.5 75Z" fill="#252220"/></svg>
