<svg xmlns="http://www.w3.org/2000/svg" viewBox="0 0 120 120"><mask id="channels"><rect width="120" height="120" fill="#fff"/><path d="M43.50 17.50L76.50 17.50L76.50 26.50L76.49 28.11L76.45 28.89L76.40 29.51L76.32 30.04L76.22 30.51L76.09 30.94L75.94 31.33L75.77 31.70L75.58 32.04L75.36 32.36L75.11 32.65L74.85 32.93L74.56 33.19L74.24 33.44L73.90 33.67L73.54 33.88L73.14 34.08L72.72 34.27L72.27 34.44L71.79 34.60L71.28 34.74L70.74 34.88L70.15 35.00L69.53 35.10L68.86 35.20L68.14 35.28L67.35 35.34L66.48 35.40L65.51 35.44L64.38 35.48L62.95 35.49L60.00 35.50L57.05 35.49L55.62 35.48L54.49 35.44L53.52 35.40L52.65 35.34L51.86 35.28L51.14 35.20L50.47 35.10L49.85 35.00L49.26 34.88L48.72 34.74L48.21 34.60L47.73 34.44L47.28 34.27L46.86 34.08L46.46 33.88L46.10 33.67L45.76 33.44L45.44 33.19L45.15 32.93L44.89 32.65L44.64 32.36L44.42 32.04L44.23 31.70L44.06 31.33L43.91 30.94L43.78 30.51L43.68 30.04L43.60 29.51L43.55 28.89L43.51 28.11L43.50 26.50Z" fill="#000"/><path d="M102.50 43.50L102.50 76.50L93.50 76.50L91.89 76.49L91.11 76.45L90.49 76.40L89.96 76.32L89.49 76.22L89.06 76.09L88.67 75.94L88.30 75.77L87.96 75.58L87.64 75.36L87.35 75.11L87.07 74.85L86.81 74.56L86.56 74.24L86.33 73.90L86.12 73.54L85.92 73.14L85.73 72.72L85.56 72.27L85.40 71.79L85.26 71.28L85.12 70.74L85.00 70.15L84.90 69.53L84.80 68.86L84.72 68.14L84.66 67.35L84.60 66.48L84.56 65.51L84.52 64.38L84.51 62.95L84.50 60.00L84.51 57.05L84.52 55.62L84.56 54.49L84.60 53.52L84.66 52.65L84.72 51.86L84.80 51.14L84.90 50.47L85.00 49.85L85.12 49.26L85.26 48.72L85.40 48.21L85.56 47.73L85.73 47.28L85.92 46.86L86.12 46.46L86.33 46.10L86.56 45.76L86.81 45.44L87.07 45.15L87.35 44.89L87.64 44.64L87.96 44.42L88.30 44.23L88.67 44.06L89.06 43.91L89.49 43.78L89.96 43.68L90.49 43.60L91.11 43.55L91.89 43.51L93.50 43.50Z" fill="#000"/><path d="M76.50 102.50L43.50 102.50L43.50 93.50L43.51 91.89L43.55 91.11L43.60 90.49L43.68 89.96L43.78 89.49L43.91 89.06L44.06 88.67L44.23 88.30L44.42 87.96L44.64 87.64L44.89 87.35L45.15 87.07L45.44 86.81L45.76 86.56L46.10 86.33L46.46 86.12L46.86 85.92L47.28 85.73L47.73 85.56L48.21 85.40L48.72 85.26L49.26 85.12L49.85 85.00L50.47 84.90L51.14 84.80L51.86 84.72L52.65 84.66L53.52 84.60L54.49 84.56L55.62 84.52L57.05 84.51L60.00 84.50L62.95 84.51L64.38 84.52L65.51 84.56L66.48 84.60L67.35 84.66L68.14 84.72L68.86 84.80L69.53 84.90L70.15 85.00L70.74 85.12L71.28 85.26L71.79 85.40L72.27 85.56L72.72 85.73L73.14 85.92L73.54 86.12L73.90 86.33L74.24 86.56L74.56 86.81L74.85 87.07L75.11 87.35L75.36 87.64L75.58 87.96L75.77 88.30L75.94 88.67L76.09 89.06L76.22 89.49L76.32 89.96L76.40 90.49L76.45 91.11L76.49 91.89L76.50 93.50Z" fill="#000"/><path d="M17.50 76.50L17.50 43.50L26.50 43.50L28.11 43.51L28.89 43.55L29.51 43.60L30.04 43.68L30.51 43.78L30.94 43.91L31.33 44.06L31.70 44.23L32.04 44.42L32.36 44.64L32.65 44.89L32.93 45.15L33.19 45.44L33.44 45.76L33.67 46.10L33.88 46.46L34.08 46.86L34.27 47.28L34.44 47.73L34.60 48.21L34.74 48.72L34.88 49.26L35.00 49.85L35.10 50.47L35.20 51.14L35.28 51.86L35.34 52.65L35.40 53.52L35.44 54.49L35.48 55.62L35.49 57.05L35.50 60.00L35.49 62.95L35.48 64.38L35.44 65.51L35.40 66.48L35.34 67.35L35.28 68.14L35.20 68.86L35.10 69.53L35.00 70.15L34.88 70.74L34.74 71.28L34.60 71.79L34.44 72.27L34.27 72.72L34.08 73.14L33.88 73.54L33.67 73.90L33.44 74.24L33.19 74.56L32.93 74.85L32.65 75.11L32.36 75.36L32.04 75.58L31.70 75.77L31.33 75.94L30.94 76.09L30.51 76.22L30.04 76.32L29.51 76.40L28.89 76.45L28.11 76.49L26.50 76.50Z" fill="#000"/></mask><path d="M99.00 60.00L98.97 73.94L98.87 78.09L98.72 81.05L98.49 83.42L98.21 85.41L97.85 87.14L97.43 88.67L96.94 90.02L96.38 91.24L95.74 92.34L95.02 93.33L94.22 94.22L93.33 95.02L92.34 95.74L91.24 96.38L90.02 96.94L88.67 97.43L87.14 97.85L85.41 98.21L83.42 98.49L81.05 98.72L78.09 98.87L73.94 98.97L60.00 99.00L46.06 98.97L41.91 98.87L38.95 98.72L36.58 98.49L34.59 98.21L32.86 97.85L31.33 97.43L29.98 96.94L28.76 96.38L27.66 95.74L26.67 95.02L25.78 94.22L24.98 93.33L24.26 92.34L23.62 91.24L23.06 90.02L22.57 88.67L22.15 87.14L21.79 85.41L21.51 83.42L21.28 81.05L21.13 78.09L21.03 73.94L21.00 60.00L21.03 46.06L21.13 41.91L21.28 38.95L21.51 36.58L21.79 34.59L22.15 32.86L22.57 31.33L23.06 29.98L23.62 28.76L24.26 27.66L24.98 26.67L25.78 25.78L26.67 24.98L27.66 24.26L28.76 23.62L29.98 23.06L31.33 22.57L32.86 22.15L34.59 21.79L36.58 21.51L38.95 21.28L41.91 21.13L46.06 21.03L60.00 21.00L73.94 21.03L78.09 21.13L81.05 21.28L83.42 21.51L85.41 21.79L87.14 22.15L88.67 22.57L90.02 23.06L91.24 23.62L92.34 24.26L93.33 24.98L94.22 25.78L95.02 26.67L95.74 27.66L96.38 28.76L96.94 29.98L97.43 31.33L97.85 32.86L98.21 34.59L98.49 36.58L98.72 38.95L98.87 41.91L98.97 46.06L99.00 60.00Z" fill="#252220" mask="url(#channels)"/><path d="M47.00 21.00L73.00 21.00L73.00 26.50L72.99 27.48L72.96 27.96L72.92 28.34L72.86 28.66L72.78 28.95L72.68 29.21L72.56 29.45L72.42 29.68L72.27 29.88L72.10 30.08L71.91 30.26L71.70 30.43L71.47 30.59L71.22 30.74L70.95 30.88L70.66 31.01L70.35 31.13L70.02 31.25L69.67 31.35L69.29 31.45L68.89 31.54L68.46 31.62L68.00 31.69L67.51 31.76L66.98 31.81L66.41 31.86L65.79 31.91L65.11 31.94L64.34 31.97L63.45 31.98L62.32 32.00L60.00 32.00L57.68 32.00L56.55 31.98L55.66 31.97L54.89 31.94L54.21 31.91L53.59 31.86L53.02 31.81L52.49 31.76L52.00 31.69L51.54 31.62L51.11 31.54L50.71 31.45L50.33 31.35L49.98 31.25L49.65 31.13L49.34 31.01L49.05 30.88L48.78 30.74L48.53 30.59L48.30 30.43L48.09 30.26L47.90 30.08L47.73 29.88L47.58 29.68L47.44 29.45L47.32 29.21L47.22 28.95L47.14 28.66L47.08 28.34L47.04 27.96L47.01 27.48L47.00 26.50Z" fill="#252220"/><path d="M99.00 47.00L99.00 73.00L93.50 73.00L92.52 72.99L92.04 72.96L91.66 72.92L91.34 72.86L91.05 72.78L90.79 72.68L90.55 72.56L90.32 72.42L90.12 72.27L89.92 72.10L89.74 71.91L89.57 71.70L89.41 71.47L89.26 71.22L89.12 70.95L88.99 70.66L88.87 70.35L88.75 70.02L88.65 69.67L88.55 69.29L88.46 68.89L88.38 68.46L88.31 68.00L88.24 67.51L88.19 66.98L88.14 66.41L88.09 65.79L88.06 65.11L88.03 64.34L88.02 63.45L88.00 62.32L88.00 60.00L88.00 57.68L88.02 56.55L88.03 55.66L88.06 54.89L88.09 54.21L88.14 53.59L88.19 53.02L88.24 52.49L88.31 52.00L88.38 51.54L88.46 51.11L88.55 50.71L88.65 50.33L88.75 49.98L88.87 49.65L88.99 49.34L89.12 49.05L89.26 48.78L89.41 48.53L89.57 48.30L89.74 48.09L89.92 47.90L90.12 47.73L90.32 47.58L90.55 47.44L90.79 47.32L91.05 47.22L91.34 47.14L91.66 47.08L92.04 47.04L92.52 47.01L93.50 47.00Z" fill="#252220"/><path d="M73.00 99.00L47.00 99.00L47.00 93.50L47.01 92.52L47.04 92.04L47.08 91.66L47.14 91.34L47.22 91.05L47.32 90.79L47.44 90.55L47.58 90.32L47.73 90.12L47.90 89.92L48.09 89.74L48.30 89.57L48.53 89.41L48.78 89.26L49.05 89.12L49.34 88.99L49.65 88.87L49.98 88.75L50.33 88.65L50.71 88.55L51.11 88.46L51.54 88.38L52.00 88.31L52.49 88.24L53.02 88.19L53.59 88.14L54.21 88.09L54.89 88.06L55.66 88.03L56.55 88.02L57.68 88.00L60.00 88.00L62.32 88.00L63.45 88.02L64.34 88.03L65.11 88.06L65.79 88.09L66.41 88.14L66.98 88.19L67.51 88.24L68.00 88.31L68.46 88.38L68.89 88.46L69.29 88.55L69.67 88.65L70.02 88.75L70.35 88.87L70.66 88.99L70.95 89.12L71.22 89.26L71.47 89.41L71.70 89.57L71.91 89.74L72.10 89.92L72.27 90.12L72.42 90.32L72.56 90.55L72.68 90.79L72.78 91.05L72.86 91.34L72.92 91.66L72.96 92.04L72.99 92.52L73.00 93.50Z" fill="#252220"/><path d="M21.00 73.00L21.00 47.00L26.50 47.00L27.48 47.01L27.96 47.04L28.34 47.08L28.66 47.14L28.95 47.22L29.21 47.32L29.45 47.44L29.68 47.58L29.88 47.73L30.08 47.90L30.26 48.09L30.43 48.30L30.59 48.53L30.74 48.78L30.88 49.05L31.01 49.34L31.13 49.65L31.25 49.98L31.35 50.33L31.45 50.71L31.54 51.11L31.62 51.54L31.69 52.00L31.76 52.49L31.81 53.02L31.86 53.59L31.91 54.21L31.94 54.89L31.97 55.66L31.98 56.55L32.00 57.68L32.00 60.00L32.00 62.32L31.98 63.45L31.97 64.34L31.94 65.11L31.91 65.79L31.86 66.41L31.81 66.98L31.76 67.51L31.69 68.00L31.62 68.46L31.54 68.89L31.45 69.29L31.35 69.67L31.25 70.02L31.13 70.35L31.01 70.66L30.88 70.95L30.74 71.22L30.59 71.47L30.43 71.70L30.26 71.91L30.08 72.10L29.88 72.27L29.68 72.42L29.45 72.56L29.21 72.68L28.95 72.78L28.66 72.86L28.34 72.92L27.96 72.96L27.48 72.99L26.50 73.00Z" fill="#252220"/></svg>
