<svg xmlns="http://www.w3.org/2000/svg" viewBox="0 0 120 120"><path d="M99 60C99 99.25 99.25 99 60 99C20.75 99 21 99.25 21 60C21 20.75 20.75 21 60 21C99.25 21 99 20.75 99 60ZM42.8 21.12L77.2 21.12L77.2 28.6C77.2 35.09 74.69 36.2 60 36.2C45.31 36.2 42.8 35.09 42.8 28.6ZM98.88 42.8L98.88 77.2L91.4 77.2C84.91 77.2 83.8 74.69 83.8 60C83.8 45.31 84.91 42.8 91.4 42.8ZM77.2 98.88L42.8 98.88L42.8 91.4C42.8 84.91 45.31 83.8 60 83.8C74.69 83.8 77.2 84.91 77.2 91.4ZM21.12 77.2L21.12 42.8L28.6 42.8C35.09 42.8 36.2 45.31 36.2 60C36.2 74.69 35.09 77.2 28.6 77.2Z" fill="#252220" fill-rule="evenodd"/><path d="M47 21L73 21L73 26.5C73 31.2 71.1 32 60 32C48.9 32 47 31.2 47 26.5Z" fill="#252220"/><path d="M99 47L99 73L93.5 73C88.8 73 88 71.1 88 60C88 48.9 88.8 47 93.5 47Z" fill="#252220"/><path d="M73 99L47 99L47 93.5C47 88.8 48.9 88 60 88C71.1 88 73 88.8 73 93.5Z" fill="#252220"/><path d="M21 73L21 47L26.5 47C31.2 47 32 48.9 32 60C32 71.1 31.2 73 26.5 73Z" fill="#252220"/></svg>
