<svg xmlns="http://www.w3.org/2000/svg" viewBox="0 0 258 76"><path d="M40.21 41.31C40.21 51.46 40.15 51.52 30 51.52C19.85 51.52 19.79 51.46 19.79 41.31C19.79 31.16 19.85 31.1 30 31.1C40.15 31.1 40.21 31.16 40.21 41.31Z" fill="#f85a3c"/><path d="M34.95 25.84C34.95 28.88 34.5 29.19 30 29.19C25.5 29.19 25.05 28.88 25.05 25.84C25.05 22.79 25.5 22.49 30 22.49C34.5 22.49 34.95 22.79 34.95 25.84Z" fill="#252220"/><path d="M48.82 41.31C48.82 45.81 48.52 46.26 45.47 46.26C42.43 46.26 42.12 45.81 42.12 41.31C42.12 36.81 42.43 36.36 45.47 36.36C48.52 36.36 48.82 36.81 48.82 41.31Z" fill="#252220"/><path d="M34.95 56.78C34.95 59.83 34.5 60.13 30 60.13C25.5 60.13 25.05 59.83 25.05 56.78C25.05 53.74 25.5 53.43 30 53.43C34.5 53.43 34.95 53.74 34.95 56.78Z" fill="#252220"/><path d="M17.88 41.31C17.88 45.81 17.57 46.26 14.53 46.26C11.48 46.26 11.18 45.81 11.18 41.31C11.18 36.81 11.48 36.36 14.53 36.36C17.57 36.36 17.88 36.81 17.88 41.31Z" fill="#252220"/><path transform="translate(60.00 52) scale(0.044000 -0.044000)" d="M23 89.5 267 396.5H453L209 89.5ZM23 0V89.5L131.5 128H447V0ZM40.5 358V486H453V396.5L344.5 358Z" fill="#252220"/><path transform="translate(80.16 52) scale(0.044000 -0.044000)" d="M257 -10Q190 -10 137.25 23.0Q84.5 56 54.25 113.0Q24 170 24 242.5Q24 315.5 54.25 372.75Q84.5 430 137.25 463.0Q190 496 257 496Q306 496 345.5 477.0Q385 458 409.75 424.5Q434.5 391 438 348V138Q434.5 95 410.0 61.5Q385.5 28 345.75 9.0Q306 -10 257 -10ZM288 128Q337 128 367.0 160.25Q397 192.5 397 243Q397 277 383.5 302.75Q370 328.5 345.5 343.25Q321 358 288.5 358Q256.5 358 232.0 343.25Q207.5 328.5 193.25 302.5Q179 276.5 179 243Q179 209.5 193.0 183.5Q207 157.5 231.75 142.75Q256.5 128 288 128ZM390.5 0V130.5L413.5 249L390.5 366.5V486H541V0Z" fill="#252220"/><path transform="translate(105.34 52) scale(0.044000 -0.044000)" d="M259.5 -218Q180 -218 119.5 -190.5Q59 -163 24 -113L118 -19.5Q144 -50 176.5 -66.25Q209 -82.5 255 -82.5Q311.5 -82.5 344.25 -54.25Q377 -26 377 25V149L402.5 255L379.5 361V486H530V29Q530 -46 495.0 -101.25Q460 -156.5 399.0 -187.25Q338 -218 259.5 -218ZM252.5 15Q186 15 133.75 46.75Q81.5 78.5 51.75 133.5Q22 188.5 22 256Q22 324 51.75 378.25Q81.5 432.5 133.75 464.25Q186 496 252.5 496Q302.5 496 342.25 477.25Q382 458.5 406.25 425.25Q430.5 392 434 348V163Q430.5 119.5 406.0 86.0Q381.5 52.5 341.75 33.75Q302 15 252.5 15ZM281.5 150.5Q313.5 150.5 337.0 164.5Q360.5 178.5 373.25 202.25Q386 226 386 256Q386 286 373.25 309.75Q360.5 333.5 337.25 347.5Q314 361.5 282 361.5Q250.5 361.5 226.75 347.5Q203 333.5 190.0 309.5Q177 285.5 177 256Q177 227.5 190.0 203.25Q203 179 226.5 164.75Q250 150.5 281.5 150.5Z" fill="#252220"/><path transform="translate(130.04 52) scale(0.044000 -0.044000)" d="M54 0V486H207V0ZM207 266.5 142.5 316.5Q161.5 402 206.99693251533742 449.0Q252.49386503067484 496 331.5 496Q366.5 496 393.25 485.5Q420 475 440 453L349 338Q339 349 324.19444444444446 354.75Q309.3888888888889 360.5 290 360.5Q252 360.5 229.5 337.125786163522Q207 313.751572327044 207 266.5Z" fill="#252220"/><path transform="translate(148.58 52) scale(0.044000 -0.044000)" d="M257 -10Q190 -10 137.25 23.0Q84.5 56 54.25 113.0Q24 170 24 242.5Q24 315.5 54.25 372.75Q84.5 430 137.25 463.0Q190 496 257 496Q306 496 345.5 477.0Q385 458 409.75 424.5Q434.5 391 438 348V138Q434.5 95 410.0 61.5Q385.5 28 345.75 9.0Q306 -10 257 -10ZM288 128Q337 128 367.0 160.25Q397 192.5 397 243Q397 277 383.5 302.75Q370 328.5 345.5 343.25Q321 358 288.5 358Q256.5 358 232.0 343.25Q207.5 328.5 193.25 302.5Q179 276.5 179 243Q179 209.5 193.0 183.5Q207 157.5 231.75 142.75Q256.5 128 288 128ZM390.5 0V130.5L413.5 249L390.5 366.5V486H541V0Z" fill="#252220"/><path transform="translate(173.76 52) scale(0.044000 -0.044000)" d="M25.5 -218Q-27.5 -218 -64.5 -200.5Q-101.5 -183 -129.5 -151.5L-34.5 -56.5Q-23.5 -69.5 -11.75 -75.0Q0 -80.5 15 -80.5Q37 -80.5 51.5 -67.5Q66 -54.5 66 -27.5V486H219V-25Q219 -84 193.75 -127.25Q168.5 -170.5 125.0 -194.25Q81.5 -218 25.5 -218ZM143.5 553Q108 553 84.5 577.25Q61 601.5 61 637Q61 672.5 84.5 696.75Q108 721 143.5 721Q180 721 203.0 696.75Q226 672.5 226 637Q226 601.5 203.0 577.25Q180 553 143.5 553Z" fill="#252220"/><path transform="translate(184.77 52) scale(0.044000 -0.044000)" d="M54 0V486H207V0ZM365 0V284Q365 320.5 342.5 341.0Q320 361.5 286.5 361.5Q263.5 361.5 245.5 352.25Q227.5 343 217.25 325.75Q207 308.5 207 284L147.5 310Q147.5 367.5 172.75 409.0Q198 450.5 241.0 473.25Q284 496 338 496Q388.5 496 429.25 473.0Q470 450 494.0 408.75Q518 367.5 518 310.5V0ZM676 0V284Q676 320.5 653.5 341.0Q631 361.5 597.5 361.5Q575 361.5 556.75 352.25Q538.5 343 528.25 325.75Q518 308.5 518 284L429.5 295.5Q432 357.5 459.25 402.25Q486.5 447 532.25 471.5Q578 496 635 496Q690.5 496 734.25 472.5Q778 449 803.5 405.5Q829 362 829 301V0Z" fill="#252220"/><path transform="translate(222.18 52) scale(0.044000 -0.044000)" d="M203.5 -2.5 4 486H168.5L295.5 98.5H235L365 486H529.5L321.5 -2.5ZM78.5 -205 224.5 110 321.5 -2.5 235.5 -205Z" fill="#252220"/></svg>
